<svg width="1713" height="1024" viewBox="0 0 1713 1024" fill="none" xmlns="http://www.w3.org/2000/svg">
<path d="M1820.44 0H0V1024H1820.44V0Z" fill="url(#paint0_linear_112_5)"/>
<path fill-rule="evenodd" clip-rule="evenodd" d="M1820.44 176.244C1758.92 193.267 1571.28 236.226 1611.85 113.778C1660.22 -32.1858 1413.76 10.8828 1213.63 75.8518C1013.49 140.821 920.234 211.83 587.852 56.8889C538.859 34.0508 495.518 15.3135 456.973 0H1820.44V176.244Z" fill="#F7AB57" fill-opacity="0.56"/>
<path fill-rule="evenodd" clip-rule="evenodd" d="M1820.44 536.618C1810.36 534.624 1799.71 532.097 1788.49 529.018C1788.49 529.018 1512.57 723.756 1560.94 404.647C1609.3 85.5391 1362.85 179.696 1162.71 321.732C962.579 463.77 862.674 625.403 536.936 280.275C307.697 37.3921 87.6762 54.9803 0 40.3892V0H1820.44V536.618Z" fill="#FE4A86" fill-opacity="0.2"/>
<path fill-rule="evenodd" clip-rule="evenodd" d="M1820.44 197.464C1776.74 211.985 1720.49 245.045 1649.78 303.407C1649.78 303.407 1383.45 185.889 1085.81 521.021C901.115 728.983 1221.25 672.431 1351.29 650.688C1481.33 628.946 1539.93 627.01 1616.77 878.244C1693.61 1129.48 1711.59 555.874 1711.59 555.874C1708.17 513.529 1744.51 520.243 1820.44 465.93V197.464Z" fill="white" fill-opacity="0.07"/>
<path fill-rule="evenodd" clip-rule="evenodd" d="M492.994 1024H592.906C486.968 961.972 642.704 739.897 857.235 685.79C814.155 661.211 748.188 654.758 655.765 679.785C463.907 731.738 420.989 888.958 492.994 1024ZM857.235 685.79C977.399 754.396 919.002 964.096 759.117 1024H1437.5C1398.2 939.596 1275.59 728.339 1016.06 679.785C961.64 669.603 907.825 673.03 857.235 685.79Z" fill="#F89561" fill-opacity="0.32"/>
<path fill-rule="evenodd" clip-rule="evenodd" d="M519.017 1024H605.128C578.092 936.713 717.919 769.495 900.186 723.526C857.107 698.947 791.14 692.493 698.717 717.521C524.528 764.69 473.11 898.627 519.017 1024ZM900.186 723.526C1001.65 781.439 975.796 939.971 869.013 1024H1461.31C1407.76 926.256 1285.56 759.903 1059.02 717.521C1004.59 707.338 950.775 710.766 900.186 723.526Z" fill="white" fill-opacity="0.12"/>
<path fill-rule="evenodd" clip-rule="evenodd" d="M0 811.231C157.115 763.321 357.979 709.392 379.259 739.556C414.696 789.787 238.601 894.022 265.481 974.886C272.29 995.366 282.431 1011.33 294.841 1024H0V811.231Z" fill="#F5EB65" fill-opacity="0.32"/>
<path fill-rule="evenodd" clip-rule="evenodd" d="M0 275.349V558.418C68.6782 555.871 143.743 543.787 221.218 515.815C520.462 407.775 478.059 162.938 98.9241 243.551C62.8679 251.217 29.9605 262.074 0 275.349Z" fill="#F5CA48" fill-opacity="0.32"/>
<path fill-rule="evenodd" clip-rule="evenodd" d="M0 414.302V697.785C68.406 695.155 143.107 683.052 220.192 655.221C519.436 547.18 477.034 302.344 97.8982 382.956C62.2592 390.534 29.696 401.229 0 414.302Z" fill="white" fill-opacity="0.12"/>
<path fill-rule="evenodd" clip-rule="evenodd" d="M0 59.9799C131.732 59.1919 232.786 76.9261 84.7038 183.29C45.367 211.544 18.0708 220.213 0 214.751V59.9799Z" fill="#FFC0DC" fill-opacity="0.19"/>
<path fill-rule="evenodd" clip-rule="evenodd" d="M0 789.956C160.504 739.338 411.757 666.833 435.698 700.769C471.135 751 295.041 855.235 321.92 936.096C338.949 987.326 376.82 1010.31 418.817 1024H0V789.956Z" fill="white" fill-opacity="0.07"/>
<defs>
<linearGradient id="paint0_linear_112_5" x1="443.939" y1="75.8519" x2="1630.81" y2="1042.96" gradientUnits="userSpaceOnUse">
<stop stop-color="#F1FF2E"/>
<stop offset="1" stop-color="#FF3590"/>
</linearGradient>
</defs>
</svg>
